<svg width="87" height="87" viewBox="0 0 87 87" fill="none" xmlns="http://www.w3.org/2000/svg">
<rect width="87" height="87" rx="43.5" fill="white" fill-opacity="0.9"/>
<path fill-rule="evenodd" clip-rule="evenodd" d="M56.5505 34.8C56.5505 42.0073 50.7078 47.85 43.5005 47.85C36.2932 47.85 30.4505 42.0073 30.4505 34.8C30.4505 27.5927 36.2932 21.75 43.5005 21.75C50.7078 21.75 56.5505 27.5927 56.5505 34.8ZM52.2005 34.8C52.2005 39.6049 48.3054 43.5 43.5005 43.5C38.6957 43.5 34.8005 39.6049 34.8005 34.8C34.8005 29.9951 38.6957 26.1 43.5005 26.1C48.3054 26.1 52.2005 29.9951 52.2005 34.8Z" fill="#1C2B3B"/>
<path d="M43.5005 54.375C29.4187 54.375 17.4207 62.7018 12.8503 74.3677C13.9637 75.4733 15.1366 76.519 16.3637 77.4997C19.767 66.7892 30.4434 58.725 43.5005 58.725C56.5577 58.725 67.2341 66.7892 70.6374 77.4998C71.8645 76.5191 73.0374 75.4733 74.1507 74.3677C69.5804 62.7018 57.5823 54.375 43.5005 54.375Z" fill="#1C2B3B"/>
</svg>
