<svg width="22" height="22" viewBox="0 0 22 22" fill="none" xmlns="http://www.w3.org/2000/svg">
<rect width="22" height="22" rx="11" fill="white" fill-opacity="0.9"/>
<path fill-rule="evenodd" clip-rule="evenodd" d="M14.3001 8.8C14.3001 10.6225 12.8227 12.1 11.0001 12.1C9.17759 12.1 7.70013 10.6225 7.70013 8.8C7.70013 6.97746 9.17759 5.5 11.0001 5.5C12.8227 5.5 14.3001 6.97746 14.3001 8.8ZM13.2001 8.8C13.2001 10.015 12.2152 11 11.0001 11C9.78511 11 8.80013 10.015 8.80013 8.8C8.80013 7.58497 9.78511 6.6 11.0001 6.6C12.2152 6.6 13.2001 7.58497 13.2001 8.8Z" fill="#011627"/>
<path d="M11.0001 13.75C7.43922 13.75 4.40524 15.8556 3.24951 18.8056C3.53105 19.0852 3.82764 19.3496 4.13794 19.5976C4.99855 16.8892 7.69833 14.85 11.0001 14.85C14.3019 14.85 17.0017 16.8892 17.8623 19.5976C18.1726 19.3496 18.4692 19.0852 18.7508 18.8056C17.595 15.8556 14.5611 13.75 11.0001 13.75Z" fill="#011627"/>
</svg>
