<svg width="358" height="23" viewBox="0 0 358 23" fill="none" xmlns="http://www.w3.org/2000/svg">
<path d="M357.75 11.5C357.75 8.90748 357.75 6.98613 357.566 5.49977C357.383 4.01944 357.021 3.0048 356.323 2.20876C356.158 2.02006 355.98 1.8424 355.791 1.67692C354.995 0.978816 353.981 0.617267 352.5 0.434231C351.014 0.250448 349.093 0.25 346.5 0.25H23C10.519 0.25 0.385376 10.3007 0.251343 22.75H346.5C349.093 22.75 351.014 22.7496 352.5 22.5658C353.981 22.3827 354.995 22.0212 355.791 21.3231C355.98 21.1576 356.158 20.9799 356.323 20.7912C357.021 19.9952 357.383 18.9806 357.566 17.5002C357.75 16.0139 357.75 14.0925 357.75 11.5Z" fill="#505050" stroke="#505050" stroke-width="0.5"/>
</svg>
