<svg width="358" height="23" viewBox="0 0 358 23" fill="none" xmlns="http://www.w3.org/2000/svg">
<path d="M0.25 11.5C0.25 8.90748 0.250448 6.98613 0.434231 5.49977C0.617267 4.01944 0.978816 3.0048 1.67692 2.20876C1.8424 2.02006 2.02006 1.8424 2.20876 1.67692C3.0048 0.978816 4.01944 0.617267 5.49977 0.434231C6.98613 0.250448 8.90749 0.25 11.5 0.25H335C347.481 0.25 357.615 10.3007 357.749 22.75H11.5C8.90749 22.75 6.98613 22.7496 5.49977 22.5658C4.01944 22.3827 3.0048 22.0212 2.20876 21.3231C2.02006 21.1576 1.8424 20.9799 1.67692 20.7912C0.978816 19.9952 0.617267 18.9806 0.434231 17.5002C0.250448 16.0139 0.25 14.0925 0.25 11.5Z" fill="#2D2D2D" stroke="#2D2D2D" stroke-width="0.5"/>
</svg>
