<svg width="223" height="54" viewBox="0 0 223 54" fill="none" xmlns="http://www.w3.org/2000/svg">
<mask id="path-1-inside-1_21_579" fill="white">
<path fill-rule="evenodd" clip-rule="evenodd" d="M43.6574 0H0V16V54H223V16H77C71.3978 7.9589 66.7573 4.72337 60.6747 2.4892C58.0073 1.50947 56.6737 1.01961 53.8071 0.509804C50.9405 0 48.5128 0 43.6574 0Z"/>
</mask>
<path fill-rule="evenodd" clip-rule="evenodd" d="M43.6574 0H0V16V54H223V16H77C71.3978 7.9589 66.7573 4.72337 60.6747 2.4892C58.0073 1.50947 56.6737 1.01961 53.8071 0.509804C50.9405 0 48.5128 0 43.6574 0Z" fill="#1C2B3B"/>
<path d="M0 0V-1H-1V0H0ZM0 54H-1V55H0V54ZM223 54V55H224V54H223ZM223 16H224V15H223V16ZM77 16L76.1795 16.5716L76.4779 17H77V16ZM60.6747 2.4892L60.3299 3.42788V3.42788L60.6747 2.4892ZM53.8071 0.509804L53.632 1.49436L53.8071 0.509804ZM0 1H43.6574V-1H0V1ZM1 16V0H-1V16H1ZM1 54V16H-1V54H1ZM223 53H0V55H223V53ZM222 16V54H224V16H222ZM77 17H223V15H77V17ZM60.3299 3.42788C66.1986 5.58347 70.6807 8.67895 76.1795 16.5716L77.8205 15.4284C72.1149 7.23886 67.316 3.86327 61.0195 1.55052L60.3299 3.42788ZM53.632 1.49436C56.4093 1.98829 57.6762 2.45315 60.3299 3.42788L61.0195 1.55052C58.3385 0.56579 56.938 0.0509263 53.9822 -0.474748L53.632 1.49436ZM43.6574 1C48.5347 1 50.8689 1.00296 53.632 1.49436L53.9822 -0.474748C51.012 -1.00296 48.4908 -1 43.6574 -1V1Z" fill="#4F5A68" mask="url(#path-1-inside-1_21_579)"/>
</svg>
